<svg xmlns="http://www.w3.org/2000/svg" width="1200" height="630" viewBox="0 0 1200 630">
  <defs>
    <linearGradient id="bg" x1="0" y1="0" x2="1" y2="1">
      <stop offset="0" stop-color="#ffd980"/>
      <stop offset="1" stop-color="#fb8500"/>
    </linearGradient>
    <linearGradient id="card" x1="0" y1="0" x2="0" y2="1">
      <stop offset="0" stop-color="#ffffff"/>
      <stop offset="1" stop-color="#fff7e6"/>
    </linearGradient>
    <filter id="crayon" x="-15%" y="-15%" width="130%" height="130%">
      <feTurbulence type="fractalNoise" baseFrequency="0.05 0.08" numOctaves="3" seed="8" result="wobble"/>
      <feDisplacementMap in="SourceGraphic" in2="wobble" scale="6" result="rough"/>
      <feTurbulence type="fractalNoise" baseFrequency="0.9" numOctaves="2" seed="3" result="grain"/>
      <feDisplacementMap in="rough" in2="grain" scale="2.5"/>
    </filter>
  </defs>
  <rect width="1200" height="630" fill="url(#bg)"/>
  <g opacity="0.25" font-size="120">
    <text x="80" y="180">⭐</text>
    <text x="1010" y="540">🌈</text>
    <text x="1030" y="170">📖</text>
    <text x="120" y="560">🧸</text>
  </g>
  <rect x="110" y="120" width="980" height="390" rx="48" fill="url(#card)"/>
  <g transform="translate(500 126) scale(1.05)" filter="url(#crayon)">
    <g transform="rotate(-2 100 95)">
      <path d="M28 112 Q24 64 66 42 Q104 22 146 40 Q178 56 176 100 Q174 134 140 145 Q100 154 62 147 Q32 141 28 112 Z"
        fill="#fbfaf5" stroke="#232320" stroke-width="10" stroke-linejoin="round"/>
      <circle cx="85" cy="75" r="8" fill="#232320"/><circle cx="115" cy="75" r="8" fill="#232320"/>
      <path d="M85 92 Q100 88 115 92 Q112 112 100 112 Q88 112 85 92 Z" fill="#e8551b" stroke="#232320" stroke-width="5" stroke-linejoin="round"/>
      <g stroke="#232320" stroke-width="6" stroke-linejoin="round">
        <path d="M95 131 L71 121 Q67 131 71 143 Z" fill="#a9c8ef"/>
        <path d="M105 131 L129 121 Q133 131 129 143 Z" fill="#a9c8ef"/>
        <circle cx="100" cy="132" r="8" fill="#a9c8ef"/>
      </g>
    </g>
  </g>
  <text x="600" y="404" text-anchor="middle" font-family="'Hiragino Maru Gothic ProN','Yu Gothic',sans-serif" font-size="100" font-weight="900" fill="#fb8500">よみもち</text>
  <text x="600" y="468" text-anchor="middle" font-family="'Hiragino Maru Gothic ProN','Yu Gothic',sans-serif" font-size="42" font-weight="700" fill="#8a7e6a">こどもの どくしょきろく</text>
</svg>
